<svg id="Layer_1" data-name="Layer 1" xmlns="http://www.w3.org/2000/svg" viewBox="0 0 45.68 50.45"><title>final_ifa</title><path d="M11.57,40.37h2.94V27.65H11.37V23.88h3.14V23c0-6.56,5.24-7.39,7.95-7.39a12.8,12.8,0,0,1,2.07.16v4.05A7.67,7.67,0,0,0,23,19.66c-1.15,0-3.42.24-3.42,3.18v1h4.57v3.77H19.56V40.37H23v3.77H11.57V40.37Z"/><path d="M33,31.94h1.27V31.28c0-2.52-1.67-3.62-3.78-3.62H23l-0.85-3.78H31c5.44,0,8.35,2.78,8.35,7.83v7.92a0.77,0.77,0,0,0,.87.85H42v3.69H37.24c-1.87,0-2.58-1-2.58-2.1V41.84a3.76,3.76,0,0,1,.12-1H34.7a7,7,0,0,1-6.4,3.8c-3.46,0-6.72-2-6.72-6C21.58,32.56,29.73,31.94,33,31.94Zm-3.38,9c2.74,0,4.69-2.87,4.69-5.36V34.93H33.46c-2,0-6.79.31-6.79,3.3A2.71,2.71,0,0,0,29.61,40.95Z"/><polygon points="0.9 23.88 6.62 23.88 6.62 11.17 2.27 11.17 2.27 7.05 11.67 7.05 11.67 27.66 0.9 27.66 0.9 23.88"/><rect x="6.58" width="5.09" height="3.78"/><rect y="7.05" width="3.67" height="42.88"/><rect x="42.01" y="7.05" width="3.67" height="43.4"/><rect y="46.77" width="43.84" height="3.67"/><rect y="7.05" width="7.65" height="3.67"/><rect x="17.95" y="7.05" width="25.18" height="3.67"/></svg>