<svg id="Layer_1" data-name="Layer 1" xmlns="http://www.w3.org/2000/svg" viewBox="0 0 186 75.67"><title>final_ifa</title><path d="M67.94,21.3h4V10.74A0.71,0.71,0,0,0,71.17,10h-2V6.59h4.75c1.59,0,2.34.74,2.34,2V9.43a5,5,0,0,1-.07.78h0.07a7.25,7.25,0,0,1,6.66-4C86.76,6.17,89,8.26,89,13V21.3h2.62v3.37H84.49V14c0-2.2-.6-3.69-2.87-3.69-3.26,0-5.17,3.12-5.17,6.27V21.3H79v3.37H67.94V21.3Z"/><path d="M92.07,10H89.31V6.59h2.91V1.67h4.36V6.59h4.11V10H96.57v7.62c0,3.08,2.34,3.51,3.61,3.51,0.5,0,.81,0,0.81,0v3.69a8.27,8.27,0,0,1-1.38.11c-2.55,0-7.55-.74-7.55-6.8V10Z"/><path d="M109,6.17c5.21,0,8,3.79,8,8.58,0,0.53-.11,1.52-0.11,1.52H104.41a5.21,5.21,0,0,0,5.42,5,9.13,9.13,0,0,0,5.24-1.91l1.74,3.19a11.5,11.5,0,0,1-7.3,2.52,9.26,9.26,0,0,1-9.71-9.46C99.8,10.07,103.56,6.17,109,6.17Zm3.4,7.44c-0.07-2.48-1.59-4-3.51-4a4.4,4.4,0,0,0-4.36,4h7.87Z"/><path d="M117.11,21.3H119V10.74a0.71,0.71,0,0,0-.78-0.78h-1.33V6.59h4c1.59,0,2.41.67,2.41,2.2V9.85A8.26,8.26,0,0,1,123.3,11h0.07a6.22,6.22,0,0,1,5.74-4.64,5.19,5.19,0,0,1,.82.07v4.43a8.05,8.05,0,0,0-1.1-.07c-3.65,0-5.28,3.19-5.28,6.59V21.3h2.59v3.37h-9V21.3Z"/><path d="M20.31,42.6h2.62V31.26h-2.8V27.89h2.8V27.08c0-5.85,4.68-6.59,7.09-6.59a11.41,11.41,0,0,1,1.84.14v3.61a6.84,6.84,0,0,0-1.38-.11c-1,0-3,.21-3,2.84v0.92h4.08v3.37H27.44V42.6h3V46H20.31V42.6Z"/><path d="M39,27.47c5.21,0,8,3.79,8,8.58,0,0.53-.11,1.52-0.11,1.52H34.43a5.21,5.21,0,0,0,5.42,5,9.13,9.13,0,0,0,5.24-1.91l1.74,3.19a11.5,11.5,0,0,1-7.3,2.52,9.26,9.26,0,0,1-9.71-9.46C29.83,31.36,33.58,27.47,39,27.47Zm3.4,7.44c-0.07-2.48-1.59-4-3.51-4a4.4,4.4,0,0,0-4.36,4h7.87Z"/><path d="M47.88,24.17h-2.8V21.3h7.26V39.94c0,1.63.35,2.48,1.84,2.48l6.22,0,0,3.72h-7c-2.87,0-5.53-1-5.53-5.88V24.17Z"/><path d="M54.85,24.17H52V21.3h7.26V39.94c0,1.63.35,2.48,1.84,2.48,0.5,0,9.2.35,9.2,0.35v3.62s-9.09-.28-10-0.28c-2.87,0-5.53-1-5.53-5.88V24.17Z"/><path d="M70.33,27.47c5.53,0,10,3.93,10,9.46s-4.43,9.46-9.92,9.46-10-3.9-10-9.46S64.84,27.47,70.33,27.47Zm0,15.1a5.37,5.37,0,0,0,5.35-5.63,5.37,5.37,0,1,0-10.74,0A5.38,5.38,0,0,0,70.37,42.56Z"/><path d="M78,27.89h8.68v3.37H84.53l2.37,8.82A13.73,13.73,0,0,1,87.19,42h0.11a13.73,13.73,0,0,1,.28-1.95L91,27.93h4l3.37,12.16A13.76,13.76,0,0,1,98.6,42h0.11A13.73,13.73,0,0,1,99,40.08l2.41-8.82H99.2V27.89h8.68v3.37h-2.16L101.54,46h-5.1l-3.12-10.6a11.94,11.94,0,0,1-.32-2H92.89a11.92,11.92,0,0,1-.32,2L89.49,46h-5.1L80.21,31.26H78V27.89Z"/><path d="M106.23,39.94h3.83V41c0,1.24,1.67,1.88,3.54,1.88s3.08-.64,3.08-1.84c0-1.52-1.7-1.91-4.11-2.8-2.66-.92-5.71-2.16-5.71-5.6,0-3.83,3.83-5.17,7.12-5.17,2.62,0,6.52,1,6.52,3.76v2.3h-3.86v-1c0-.92-1.06-1.49-2.66-1.49-1.42,0-2.62.5-2.62,1.63,0,1.49,1.77,2.09,3.79,2.69,2.76,0.89,6,2,6,5.56s-3.47,5.49-7.62,5.49c-3.3,0-7.34-1.42-7.34-4.36V39.94Z"/><path d="M120.36,42.6H123V24.17h-2.8l-0.12-2.87h7.3l0.12,8.3a10.24,10.24,0,0,1-.11,1.52h0.07a7.05,7.05,0,0,1,6.24-3.65c4,0,6.31,2.09,6.31,6.88V42.6h2.62V46h-7.12V35.26c0-2.2-.57-3.69-2.84-3.69-3.19,0-5.17,2.76-5.17,6.1V42.6h2.59V46h-9.71V42.6Z"/><polygon points="139.84 42.6 142.46 42.6 142.46 31.26 139.66 31.26 139.66 27.89 146.96 27.89 146.96 45.97 139.84 45.97 139.84 42.6"/><path d="M149.45,49.69V32a0.71,0.71,0,0,0-.78-0.78h-3.27V27.89h5.89c1.67,0,2.23.78,2.23,1.7V29.7c0,0.43,0,.82,0,0.82h0.07a6.45,6.45,0,0,1,5.81-3c4.89,0,8,3.86,8,9.46s-3.51,9.46-8.26,9.46a6.3,6.3,0,0,1-5.21-2.55h-0.07A10.49,10.49,0,0,1,154,45.4v4.29h2.62v3.37h-7.13V49.69Zm8.86-7.09c2.48,0,4.54-2,4.54-5.6s-1.84-5.67-4.5-5.67c-2.34,0-4.54,1.7-4.54,5.7C153.81,39.83,155.37,42.6,158.31,42.6Z"/><path d="M24.87,56.1H26V55.5c0-2.3-1.45-3.12-3.33-3.12a10,10,0,0,0-5.1,1.74L15.91,51a12.28,12.28,0,0,1,7.16-2.23c4.85,0,7.44,2.52,7.44,7.12v7.23a0.69,0.69,0,0,0,.78.78h1.63v3.37H28.67c-1.67,0-2.3-.89-2.3-1.91V65.14a3.51,3.51,0,0,1,.11-0.92H26.4a6.29,6.29,0,0,1-5.71,3.47c-3.08,0-6-1.81-6-5.49C14.7,56.67,22,56.1,24.87,56.1Zm-3,8.22c2.45,0,4.18-2.62,4.18-4.89v-0.6H25.3c-1.77,0-6.06.28-6.06,3A2.44,2.44,0,0,0,21.86,64.32Z"/><path d="M31,61.24h3.83V62.3c0,1.24,1.67,1.88,3.54,1.88s3.08-.64,3.08-1.84c0-1.52-1.7-1.91-4.11-2.8-2.66-.92-5.71-2.16-5.71-5.6,0-3.83,3.83-5.17,7.12-5.17,2.62,0,6.52,1,6.52,3.76v2.3H41.45v-1c0-.92-1.06-1.49-2.66-1.49-1.42,0-2.62.5-2.62,1.63,0,1.49,1.77,2.09,3.79,2.69,2.76,0.89,6,2,6,5.56s-3.47,5.49-7.62,5.49c-3.3,0-7.34-1.42-7.34-4.36V61.24Z"/><path d="M44.57,61.24H48.4V62.3c0,1.24,1.67,1.88,3.54,1.88S55,63.54,55,62.34c0-1.52-1.7-1.91-4.11-2.8-2.66-.92-5.71-2.16-5.71-5.6,0-3.83,3.83-5.17,7.12-5.17,2.62,0,6.52,1,6.52,3.76v2.3H55v-1c0-.92-1.06-1.49-2.66-1.49-1.42,0-2.62.5-2.62,1.63,0,1.49,1.77,2.09,3.79,2.69,2.76,0.89,6,2,6,5.56s-3.47,5.49-7.62,5.49c-3.3,0-7.34-1.42-7.34-4.36V61.24Z"/><path d="M86.32,48.77c3,0,7.41,1.13,7.41,4.32v2.48h-3.9v-1.2c0-1.2-1.84-1.77-3.37-1.77-3.3,0-5.32,2.27-5.32,5.56a5.41,5.41,0,0,0,5.67,5.74,9.49,9.49,0,0,0,5.63-2.2L94,64.89a11.48,11.48,0,0,1-7.48,2.8c-5.28,0-10-3.58-10-9.43A9.39,9.39,0,0,1,86.32,48.77Z"/><polygon points="93.12 63.9 95.75 63.9 95.75 52.56 92.95 52.56 92.95 49.19 100.25 49.19 100.25 67.26 93.12 67.26 93.12 63.9"/><rect x="95.71" y="42.6" width="4.54" height="3.37"/><rect x="142.43" y="21.3" width="4.54" height="3.37"/><polygon points="58.39 21.3 63.49 21.3 63.49 9.96 60.7 9.96 60.7 6.59 68 6.59 68 24.66 58.39 24.66 58.39 21.3"/><rect x="63.46" width="4.54" height="3.37"/><path d="M111.37,56.1h1.13V55.5c0-2.3-1.45-3.12-3.33-3.12a10,10,0,0,0-5.1,1.74L102.41,51a12.28,12.28,0,0,1,7.16-2.23c4.85,0,7.44,2.52,7.44,7.12v7.23a0.69,0.69,0,0,0,.78.78h1.63v3.37h-4.25c-1.67,0-2.3-.89-2.3-1.91V65.14a3.51,3.51,0,0,1,.11-0.92H112.9a6.29,6.29,0,0,1-5.71,3.47c-3.08,0-6-1.81-6-5.49C101.2,56.67,108.47,56.1,111.37,56.1Zm-3,8.22c2.45,0,4.18-2.62,4.18-4.89v-0.6H111.8c-1.77,0-6.06.28-6.06,3A2.44,2.44,0,0,0,108.36,64.32Z"/><path d="M119,52.56h-2.76V49.19h2.91V43.32h4.36v5.87h4.11v3.37h-4.11v7.62c0,3.08,2.34,3.51,3.61,3.51,0.5,0,.82,0,0.82,0v3.69a8.28,8.28,0,0,1-1.38.11c-2.55,0-7.55-.74-7.55-6.8V52.56Z"/><polygon points="126.93 63.72 129.55 63.57 129.55 52.56 126.75 52.56 126.75 49.19 134.05 49.19 134.05 67.26 126.93 67.43 126.93 63.72"/><rect x="129.52" y="42.6" width="4.54" height="3.37"/><path d="M143.68,48.77c5.53,0,10,3.93,10,9.46s-4.43,9.46-9.92,9.46-10-3.9-10-9.46S138.18,48.77,143.68,48.77Zm0,15.1a5.64,5.64,0,1,0-5.39-5.63A5.37,5.37,0,0,0,143.71,63.86Z"/><path d="M152.25,64.39h2.62V53.83a0.71,0.71,0,0,0-.78-0.78h-2V49.69h4.75c1.59,0,2.34.74,2.34,2v0.82a5,5,0,0,1-.07.78h0.07a7.25,7.25,0,0,1,6.66-4c3.86,0,6.06,2.09,6.06,6.88v8.26h2.62v3.37h-7.09V57.06c0-2.2-.6-3.69-2.87-3.69-3.26,0-5.17,3.12-5.17,6.27v4.75H162v3.37h-9.71V64.39Z"/><path d="M67.93,48.77c5.53,0,10,3.93,10,9.46S73.46,67.69,68,67.69s-10-3.9-10-9.46S62.43,48.77,67.93,48.77Zm0,15.1a5.64,5.64,0,1,0-5.39-5.63A5.37,5.37,0,0,0,68,63.86Z"/><polygon points="130 13.67 130 17.67 182 17.67 182 71.67 4 71.67 4 17.67 52 17.67 52 13.67 0 13.67 0 75.67 186 75.67 186 73.51 186 13.67 130 13.67"/></svg>