<?xml version="1.0" encoding="utf-8"?>
<!-- Generator: Adobe Illustrator 12.0.0, SVG Export Plug-In . SVG Version: 6.00 Build 51448)  -->
<!DOCTYPE svg PUBLIC "-//W3C//DTD SVG 1.1//EN" "http://www.w3.org/Graphics/SVG/1.1/DTD/svg11.dtd" [
	<!ENTITY ns_svg "http://www.w3.org/2000/svg">
	<!ENTITY ns_xlink "http://www.w3.org/1999/xlink">
]>
<svg  version="1.1" id="Layer_1" xmlns="&ns_svg;" xmlns:xlink="&ns_xlink;" width="720" height="720" viewBox="0 0 720 720"
	 overflow="visible" enable-background="new 0 0 720 720" xml:space="preserve">
<g>
	<defs>
		<rect id="XMLID_1_" width="720" height="720"/>
	</defs>
	<clipPath id="XMLID_3_">
		<use xlink:href="#XMLID_1_" />
	</clipPath>
	<path clip-path="url(#XMLID_3_)" fill="none" stroke="#000000" stroke-width="22.378" stroke-miterlimit="10" d="M139.32,232.597
		c30.067-52.079,38.426-112.184,71.371-131.199c32.938-19.02,89.172,3.791,149.3,3.791c60.138,0,116.368-22.809,149.31-3.791
		c32.938,19.016,41.301,79.12,71.371,131.199c30.064,52.074,77.934,89.366,77.934,127.403c0,38.036-47.869,75.333-77.934,127.405
		c-30.07,52.076-38.434,112.182-71.371,131.201c-32.943,19.02-89.172-3.791-149.305-3.787
		c-60.133-0.004-116.365,22.807-149.311,3.783c-32.934-19.016-41.303-79.115-71.372-131.192
		C109.252,435.328,61.385,398.035,61.382,360C61.385,321.963,109.252,284.671,139.32,232.597z"/>
	<path clip-path="url(#XMLID_3_)" fill="none" stroke="#000000" stroke-width="22.378" stroke-miterlimit="10" d="M105.179,360
		c0-60.13-22.808-116.367-3.787-149.306c19.016-32.939,79.122-41.302,131.194-71.366c52.081-30.068,89.375-77.939,127.41-77.94
		c38.036,0.005,75.329,47.872,127.407,77.935c52.078,30.067,112.176,38.432,131.201,71.371c19.01,32.941-3.791,89.173-3.791,149.305
		c-0.004,60.136,22.801,116.362,3.785,149.304c-19.02,32.941-79.117,41.305-131.195,71.373s-89.371,77.932-127.407,77.932
		c-38.035,0-75.329-47.863-127.41-77.932c-52.076-30.068-112.176-38.436-131.194-71.373C82.371,476.361,105.183,420.131,105.179,360
		z"/>
	<polygon clip-path="url(#XMLID_3_)" points="66.931,190.802 112.343,198.437 96.253,226.311 	"/>
	<polygon clip-path="url(#XMLID_3_)" points="66.934,529.199 96.252,493.693 112.343,521.563 	"/>
	<polygon clip-path="url(#XMLID_3_)" points="360,698.4 343.908,655.256 376.092,655.256 	"/>
	<polygon clip-path="url(#XMLID_3_)" points="653.063,529.199 607.65,521.563 623.742,493.689 	"/>
	<polygon clip-path="url(#XMLID_3_)" points="653.063,190.799 623.742,226.309 607.648,198.435 	"/>
	<polygon clip-path="url(#XMLID_3_)" points="359.996,21.599 376.086,64.745 343.899,64.745 	"/>
	<polygon clip-path="url(#XMLID_3_)" points="545.822,252.714 577.559,214.278 594.98,244.447 	"/>
	<polygon clip-path="url(#XMLID_3_)" points="359.991,145.424 342.572,98.722 377.41,98.722 	"/>
	<polygon clip-path="url(#XMLID_3_)" points="174.161,252.716 125.007,244.45 142.422,214.278 	"/>
	<polygon clip-path="url(#XMLID_3_)" points="174.161,467.291 142.43,505.732 125.007,475.566 	"/>
	<polygon clip-path="url(#XMLID_3_)" points="359.991,574.584 377.418,621.287 342.575,621.291 	"/>
	<polygon clip-path="url(#XMLID_3_)" points="545.822,467.291 594.982,475.553 577.563,505.729 	"/>
	<polygon clip-path="url(#XMLID_3_)" points="21.6,360.007 64.744,343.916 64.744,376.1 	"/>
	<polygon clip-path="url(#XMLID_3_)" points="190.8,653.072 198.437,607.66 226.309,623.752 	"/>
	<polygon clip-path="url(#XMLID_3_)" points="529.199,653.072 493.691,623.75 521.566,607.658 	"/>
	<polygon clip-path="url(#XMLID_3_)" points="698.4,360.002 655.256,376.096 655.256,343.916 	"/>
	<polygon clip-path="url(#XMLID_3_)" points="529.199,66.938 521.561,112.354 493.688,96.262 	"/>
	<polygon clip-path="url(#XMLID_3_)" points="190.797,66.942 226.303,96.261 198.435,112.356 	"/>
	<path clip-path="url(#XMLID_3_)" d="M199.967,360.238v-0.24c0-23.879,18.84-43.439,44.759-43.439
		c25.919,0,44.517,19.32,44.517,43.199v0.24c0,23.878-18.839,43.437-44.757,43.437C218.567,403.436,199.967,384.117,199.967,360.238
		 M269.924,360.238v-0.24c0-14.4-10.559-26.4-25.438-26.4c-14.88,0-25.2,11.76-25.2,26.16v0.24c0,14.4,10.56,26.398,25.44,26.398
		C259.605,386.396,269.924,374.637,269.924,360.238"/>
	<polygon clip-path="url(#XMLID_3_)" points="324.887,318 341.926,318 381.285,369.719 381.285,318 399.523,318 399.523,401.996 
		383.805,401.996 343.125,348.599 343.125,401.996 324.887,401.996 	"/>
	<polygon clip-path="url(#XMLID_3_)" points="438.885,318 502.242,318 502.242,334.438 457.244,334.438 457.244,351.479 
		496.844,351.479 496.844,367.918 457.244,367.918 457.244,385.557 502.844,385.557 502.844,401.996 438.885,401.996 	"/>
</g>
</svg>
